#N canvas 590 442 118 172 10;
#X obj 45 15 inlet;
#X obj 33 121 outlet;
#X obj 19 52 f 0;
#X obj 19 83 + 1;
#X obj 67 68 % 2;
#X connect 0 0 2 0;
#X connect 2 0 3 0;
#X connect 3 0 4 0;
#X connect 4 0 1 0;
#X connect 4 0 2 1;
