#N canvas 386 242 450 300 10;
#X obj 217 35 inlet;
#X obj 222 255 outlet;
#X obj 170 110 route 1 2 3 4 5 6 7 8;
#X msg 243 178 60;
#X msg 285 178 62;
#X obj 330 178 64;
#X obj 374 178 65;
#X msg 69 178 67;
#X msg 112 178 69;
#X msg 156 178 71;
#X msg 197 178 72;
#X connect 0 0 2 0;
#X connect 2 0 7 0;
#X connect 2 1 8 0;
#X connect 2 2 9 0;
#X connect 2 3 10 0;
#X connect 2 4 3 0;
#X connect 2 5 4 0;
#X connect 2 6 5 0;
#X connect 2 7 6 0;
#X connect 3 0 1 0;
#X connect 4 0 1 0;
#X connect 5 0 1 0;
#X connect 6 0 1 0;
#X connect 7 0 1 0;
#X connect 8 0 1 0;
#X connect 9 0 1 0;
#X connect 10 0 1 0;
