#N canvas 315 194 476 504 10;
#X obj 121 465 noteout;
#X obj 58 70 inlet;
#X msg 120 416 \$2 \$1;
#X obj 380 21 notein;
#X obj 58 112 monostable 100;
#X obj 290 292 bistable;
#X obj 231 70 inlet;
#X obj 373 149 route 0;
#X obj 372 112 route \$1;
#X obj 120 368 pack f \$1;
#X obj 327 233 bng 15 250 50 0 empty empty empty 17 7 0 10 -262144
-1 -1;
#X obj 374 70 pack f f \$2;
#X obj 373 187 route 1;
#X obj 58 149 pack f f;
#X obj 108 292 route 0;
#X msg 58 187 \$2 \$1;
#X msg 231 149 \$2 \$1;
#X obj 232 187 route 1;
#X obj 231 112 pack 1 \$2;
#X obj 259 233 bng 15 250 50 0 empty empty empty 17 7 0 10 -262144
-1 -1;
#X obj 283 368 outlet;
#X connect 1 0 4 0;
#X connect 2 0 0 0;
#X connect 3 0 11 0;
#X connect 3 1 11 1;
#X connect 4 0 13 0;
#X connect 5 0 9 0;
#X connect 5 0 13 1;
#X connect 5 0 20 0;
#X connect 6 0 18 0;
#X connect 7 0 12 0;
#X connect 8 0 7 0;
#X connect 9 0 2 0;
#X connect 10 0 5 0;
#X connect 11 0 8 0;
#X connect 12 0 10 0;
#X connect 13 0 15 0;
#X connect 14 0 9 0;
#X connect 14 0 20 0;
#X connect 15 0 14 0;
#X connect 16 0 17 0;
#X connect 17 0 19 0;
#X connect 18 0 16 0;
#X connect 19 0 5 0;
