#N canvas 289 105 412 589 10;
#X obj 136 535 noteout;
#X obj 215 16 inlet;
#X obj 36 295 pack f f;
#X obj 184 166 < 2;
#X obj 67 399 spigot;
#X obj 248 166 == 2;
#X obj 152 315 pack f 1;
#X obj 167 456 spigot;
#X obj 250 315 pack 0 f;
#X msg 163 399 \$2 \$1;
#X obj 299 208 bng 15 250 50 0 empty empty empty 17 7 0 10 -262144
-1 -1;
#X obj 317 255 delay 100;
#X obj 70 89 f \$1;
#X msg 52 346 \$2 \$1;
#X obj 119 50 bng 15 250 50 0 empty empty empty 17 7 0 10 -262144 -1
-1;
#X obj 41 135 get-key;
#X connect 1 0 3 0;
#X connect 1 0 5 0;
#X connect 1 0 2 0;
#X connect 1 0 14 0;
#X connect 2 0 13 0;
#X connect 3 0 4 1;
#X connect 4 0 0 0;
#X connect 5 0 7 1;
#X connect 5 0 10 0;
#X connect 5 0 6 0;
#X connect 6 0 9 0;
#X connect 7 0 0 0;
#X connect 8 0 9 0;
#X connect 9 0 7 0;
#X connect 10 0 11 0;
#X connect 11 0 8 0;
#X connect 12 0 15 0;
#X connect 13 0 4 0;
#X connect 14 0 12 0;
#X connect 15 0 2 1;
#X connect 15 0 6 1;
#X connect 15 0 8 1;
