#N canvas 477 128 608 573 10;
#X obj 343 540 noteout;
#X obj 422 21 inlet;
#X obj 243 300 pack f f;
#X msg 16 149 \; lpd8 1 60 62 64 65 67 69 71 72;
#X obj 79 124 table lpd8 9;
#X obj 391 171 < 2;
#X obj 274 404 spigot;
#X obj 455 171 == 2;
#X obj 359 320 pack f 1;
#X obj 374 461 spigot;
#X obj 457 320 pack 0 f;
#X msg 370 404 \$2 \$1;
#X obj 506 213 bng 15 250 50 0 empty empty empty 17 7 0 10 -262144
-1 -1;
#X obj 524 260 delay 100;
#X obj 139 21 loadbang;
#X obj 257 118 tabread lpd8;
#X obj 202 73 f \$1;
#X msg 259 351 \$2 \$1;
#X connect 1 0 5 0;
#X connect 1 0 7 0;
#X connect 1 0 2 0;
#X connect 2 0 17 0;
#X connect 5 0 6 1;
#X connect 6 0 0 0;
#X connect 7 0 9 1;
#X connect 7 0 12 0;
#X connect 7 0 8 0;
#X connect 8 0 11 0;
#X connect 9 0 0 0;
#X connect 10 0 11 0;
#X connect 11 0 9 0;
#X connect 12 0 13 0;
#X connect 13 0 10 0;
#X connect 14 0 3 0;
#X connect 14 0 16 0;
#X connect 15 0 10 1;
#X connect 15 0 8 1;
#X connect 15 0 2 1;
#X connect 16 0 15 0;
#X connect 17 0 6 0;
