#N canvas 315 194 441 459 10;
#X obj 109 420 noteout;
#X obj 38 25 inlet;
#X msg 104 370 \$2 \$1;
#X obj 343 25 notein;
#X obj 28 64 monostable 100;
#X obj 270 247 bistable;
#X obj 217 25 inlet;
#X obj 314 161 route 0;
#X obj 328 118 route \$1;
#X obj 118 323 pack f \$1;
#X obj 337 76 pack f f \$2;
#X obj 32 104 pack f f;
#X obj 88 247 route 0;
#X msg 47 146 \$2 \$1;
#X obj 286 327 outlet;
#X obj 300 206 sel 1;
#X obj 219 147 sel 1;
#X obj 208 89 pack \$2;
#X connect 1 0 4 0;
#X connect 2 0 0 0;
#X connect 3 0 10 0;
#X connect 3 1 10 1;
#X connect 4 0 11 0;
#X connect 5 0 9 0;
#X connect 5 0 11 1;
#X connect 5 0 14 0;
#X connect 6 0 17 0;
#X connect 7 0 15 0;
#X connect 8 0 7 0;
#X connect 9 0 2 0;
#X connect 10 0 8 0;
#X connect 11 0 13 0;
#X connect 12 0 9 0;
#X connect 13 0 12 0;
#X connect 15 0 5 0;
#X connect 16 0 5 0;
#X connect 17 0 16 0;
