#N canvas 184 424 768 186 10;
#X obj 16 29 inlet;
#X obj 112 29 inlet;
#X obj 207 29 inlet;
#X obj 301 29 inlet;
#X obj 395 29 inlet;
#X obj 489 29 inlet;
#X obj 579 29 inlet;
#X obj 670 29 inlet;
#X obj 16 141 outlet;
#X obj 113 141 outlet;
#X obj 209 141 outlet;
#X obj 303 141 outlet;
#X obj 397 141 outlet;
#X obj 491 141 outlet;
#X obj 582 141 outlet;
#X obj 672 141 outlet;
#X obj 16 85 lpd8-pad 67 0;
#X obj 112 85 lpd8-pad 69 0;
#X obj 208 85 lpd8-pad 71 0;
#X obj 302 85 lpd8-pad 72 0;
#X obj 396 85 lpd8-pad 60 1;
#X obj 489 85 lpd8-pad 62 1;
#X obj 580 85 lpd8-pad 64 1;
#X obj 671 85 lpd8-pad 65 1;
#X connect 0 0 16 0;
#X connect 1 0 17 0;
#X connect 2 0 18 0;
#X connect 3 0 19 0;
#X connect 4 0 20 0;
#X connect 5 0 21 0;
#X connect 6 0 22 0;
#X connect 7 0 23 0;
#X connect 16 0 8 0;
#X connect 17 0 9 0;
#X connect 18 0 10 0;
#X connect 19 0 11 0;
#X connect 20 0 12 0;
#X connect 21 0 13 0;
#X connect 22 0 14 0;
#X connect 23 0 15 0;
