#N canvas 583 383 729 300 10;
#X obj 17 59 lpd8-in 1;
#X obj 26 19 inlet;
#X obj 96 19 inlet;
#X obj 165 19 inlet;
#X obj 233 19 inlet;
#X obj 303 19 inlet;
#X obj 372 19 inlet;
#X obj 442 19 inlet;
#X obj 514 19 inlet;
#X obj 87 59 lpd8-in 2;
#X obj 156 59 lpd8-in 3;
#X obj 224 59 lpd8-in 4;
#X obj 294 59 lpd8-in 5;
#X obj 363 59 lpd8-in 6;
#X obj 433 59 lpd8-in 7;
#X obj 502 59 lpd8-in 8;
#X connect 1 0 0 0;
#X connect 2 0 9 0;
#X connect 3 0 10 0;
#X connect 4 0 11 0;
#X connect 5 0 12 0;
#X connect 6 0 13 0;
#X connect 7 0 14 0;
#X connect 8 0 15 0;
