#N canvas 398 177 466 447 10;
#X obj 76 12 inlet;
#X obj 88 117 metro 500;
#X obj 101 70 tgl 15 0 empty empty empty 17 7 0 10 -262144 -1 -1 1
1;
#X obj 342 12 inlet;
#X obj 316 70 expr 60 / $f1 * 1000;
#X obj 32 237 outlet;
#X obj 281 12 inlet;
#X obj 271 195 + 1;
#X obj 268 412 outlet;
#X obj 226 302 spigot 0;
#X obj 300 268 == 0;
#X obj 306 231 % 4;
#X obj 233 195 f;
#X msg 254 143 0;
#X obj 147 12 inlet;
#N canvas 380 398 359 390 tone 0;
#X obj 142 244 osc~;
#X obj 157 357 dac~;
#X obj 123 191 mtof;
#X obj 167 301 *~;
#X obj 278 85 delay 200;
#X msg 270 244 0;
#X obj 30 23 inlet;
#X obj 139 23 inlet;
#X obj 244 23 inlet;
#X msg 44 85 60;
#X obj 76 140 max;
#X msg 125 85 72;
#X msg 83 85 0;
#X msg 216 244 0.1;
#X connect 0 0 3 0;
#X connect 2 0 0 0;
#X connect 3 0 1 0;
#X connect 3 0 1 1;
#X connect 4 0 5 0;
#X connect 5 0 3 1;
#X connect 6 0 9 0;
#X connect 6 0 12 0;
#X connect 7 0 11 0;
#X connect 8 0 4 0;
#X connect 8 0 13 0;
#X connect 9 0 10 0;
#X connect 10 0 2 0;
#X connect 11 0 10 1;
#X connect 12 0 10 1;
#X connect 13 0 3 1;
#X restore 128 412 pd tone;
#X obj 138 341 spigot;
#X obj 166 301 tgl 15 0 empty empty empty 17 7 0 10 -262144 -1 -1 0
1;
#X obj 216 12 inlet;
#X connect 0 0 2 0;
#X connect 1 0 5 0;
#X connect 1 0 9 0;
#X connect 1 0 12 0;
#X connect 1 0 15 0;
#X connect 1 0 16 0;
#X connect 2 0 1 0;
#X connect 3 0 4 0;
#X connect 4 0 1 1;
#X connect 6 0 11 1;
#X connect 7 0 12 1;
#X connect 9 0 8 0;
#X connect 9 0 15 1;
#X connect 10 0 9 1;
#X connect 11 0 10 0;
#X connect 12 0 7 0;
#X connect 12 0 11 0;
#X connect 13 0 12 0;
#X connect 14 0 13 0;
#X connect 16 0 15 2;
#X connect 17 0 16 1;
#X connect 18 0 17 0;
