#N canvas 728 200 262 279 10;
#X obj 82 15 inlet;
#X obj 75 209 outlet;
#X obj 170 47 loadbang;
#X obj 163 88 f \$1;
#X msg 48 120 1;
#X msg 101 167 0;
#X obj 101 121 delay 500;
#X connect 0 0 4 0;
#X connect 0 0 6 0;
#X connect 2 0 3 0;
#X connect 3 0 6 1;
#X connect 4 0 1 0;
#X connect 5 0 1 0;
#X connect 6 0 5 0;
