#N canvas 797 309 341 345 10;
#X obj 48 23 inlet;
#X obj 147 307 outlet;
#X obj 243 77 loadbang;
#X obj 226 121 f \$1;
#X msg 104 225 1;
#X msg 187 225 0;
#X obj 160 23 inlet;
#X obj 159 159 delay 100;
#X obj 33 88 spigot 1;
#X obj 282 163 == 0;
#X connect 0 0 8 0;
#X connect 2 0 3 0;
#X connect 3 0 7 1;
#X connect 4 0 1 0;
#X connect 4 0 9 0;
#X connect 5 0 1 0;
#X connect 5 0 9 0;
#X connect 6 0 7 1;
#X connect 7 0 5 0;
#X connect 8 0 4 0;
#X connect 8 0 7 0;
#X connect 9 0 8 1;
