#N canvas 289 255 649 489 10;
#X obj 199 42 adc~;
#X msg 284 105 stop;
#X obj 275 15 inlet;
#X obj 64 206 table \$0-samples 220500;
#X obj 187 151 tabwrite~ \$0-samples;
#X obj 415 403 dac~;
#X obj 417 269 phasor~;
#X obj 417 313 *~ 1;
#X obj 417 351 tabread~ \$0-samples;
#X obj 338 106 timer;
#X obj 353 146 t b f f;
#X obj 499 254 * 44.1;
#X msg 346 196 1000;
#X obj 387 236 /;
#X obj 279 53 sel 1 0;
#X connect 0 0 4 0;
#X connect 0 1 4 0;
#X connect 1 0 4 0;
#X connect 2 0 14 0;
#X connect 6 0 7 0;
#X connect 7 0 8 0;
#X connect 8 0 5 0;
#X connect 8 0 5 1;
#X connect 9 0 10 0;
#X connect 10 0 12 0;
#X connect 10 1 13 1;
#X connect 10 2 11 0;
#X connect 11 0 7 1;
#X connect 12 0 13 0;
#X connect 13 0 6 0;
#X connect 14 0 4 0;
#X connect 14 0 9 0;
#X connect 14 1 1 0;
#X connect 14 1 9 1;
