#N canvas 343 120 410 647 10;
#X obj 29 108 adc~;
#X msg 134 132 stop;
#X obj 120 12 inlet;
#X obj 17 611 table \$0-samples 220500;
#X obj 47 211 tabwrite~ \$0-samples;
#X obj 250 600 dac~;
#X obj 221 455 phasor~;
#X obj 239 504 *~ 1;
#X obj 257 548 tabread~ \$0-samples;
#X obj 190 134 timer;
#X obj 182 336 t b f f;
#X obj 298 455 * 44.1;
#X msg 160 380 1000;
#X obj 192 419 /;
#X obj 131 81 sel 1 0;
#X obj 276 12 inlet;
#X obj 241 185 monostable;
#X obj 209 298 f;
#X msg 291 380 0;
#X obj 232 227 sel 1 0;
#X obj 354 122 sel 1;
#X obj 268 134 spigot;
#X obj 328 69 == 0;
#X connect 0 0 4 0;
#X connect 0 1 4 0;
#X connect 1 0 4 0;
#X connect 2 0 14 0;
#X connect 2 0 20 0;
#X connect 2 0 22 0;
#X connect 6 0 7 0;
#X connect 7 0 8 0;
#X connect 8 0 5 0;
#X connect 8 0 5 1;
#X connect 9 0 16 1;
#X connect 9 0 17 1;
#X connect 10 0 12 0;
#X connect 10 1 13 1;
#X connect 10 2 11 0;
#X connect 11 0 7 1;
#X connect 12 0 13 0;
#X connect 13 0 6 0;
#X connect 14 0 4 0;
#X connect 14 0 9 0;
#X connect 14 1 1 0;
#X connect 14 1 9 1;
#X connect 15 0 21 0;
#X connect 16 0 19 0;
#X connect 17 0 10 0;
#X connect 18 0 6 0;
#X connect 19 0 17 0;
#X connect 19 1 18 0;
#X connect 20 0 18 0;
#X connect 21 0 16 0;
#X connect 22 0 21 1;
