#N canvas 787 116 561 575 10;
#X obj 116 32 bng 15 250 50 0 empty empty empty 17 7 0 10 -262144 -1
-1;
#X floatatom 283 44 5 0 0 0 - - -;
#X floatatom 225 35 5 0 0 0 - - -;
#X obj 158 27 bng 15 250 50 0 empty empty empty 17 7 0 10 -262144 -1
-1;
#X obj 195 37 bng 15 250 50 0 empty empty empty 17 7 0 10 -262144 -1
-1;
#X obj 157 112 metronome;
#X obj 115 193 lpd8, f 26;
#X obj 46 309 sampler;
#X obj 116 309 sampler;
#X obj 188 309 sampler;
#X obj 268 309 sampler;
#X connect 0 0 5 0;
#X connect 1 0 5 4;
#X connect 2 0 5 3;
#X connect 3 0 5 1;
#X connect 4 0 5 2;
#X connect 5 0 6 0;
#X connect 5 1 6 4;
#X connect 5 1 6 5;
#X connect 5 1 6 6;
#X connect 5 1 6 7;
#X connect 5 1 7 1;
#X connect 5 1 8 1;
#X connect 5 1 9 1;
#X connect 5 1 10 1;
#X connect 6 0 7 0;
#X connect 6 1 8 0;
#X connect 6 2 9 0;
#X connect 6 3 10 0;
